<?xml version="1.0" encoding="utf-8"?>
<!-- Generator: Adobe Illustrator 22.1.0, SVG Export Plug-In . SVG Version: 6.00 Build 0)  -->
<svg version="1.1" id="Layer_1" xmlns="http://www.w3.org/2000/svg" xmlns:xlink="http://www.w3.org/1999/xlink" x="0px" y="0px"
	 viewBox="0 0 138 100" style="enable-background:new 0 0 138 100;" xml:space="preserve">
<style type="text/css">
	.st0{fill:#FFE01B;}
	.st1{fill:#202020;}
	.st2{fill:#FF7381;}
	.st3{fill:#FFC7DB;}
	.st4{fill:#2CCAFA;}
</style>
<g>
	<g>
		<g>
			<path class="st0" d="M114.6,74.4H23.4c-1.8,0-3.3-1.5-3.3-3.3V59c0-1.8,1.5-3.3,3.3-3.3h91.2c1.8,0,3.3,1.5,3.3,3.3v12.1
				C117.8,72.9,116.4,74.4,114.6,74.4z"/>
		</g>
		<g>
			<g>
				<path class="st1" d="M34.5,65.2c0-1.2-0.6-2.3-1.4-3c-0.8-0.8-2-1.2-3.1-1.2s-2.2,0.3-3.1,1c-0.8,0.7-1.4,1.7-1.5,2.8
					c-0.1,1.1,0.3,2.1,1,3c0.7,0.8,1.7,1.4,2.9,1.5c1.1,0.1,2.3-0.1,3.2-0.7c1-0.6,1.7-1.6,1.9-2.8c0.1-0.3,0.5-0.3,0.5,0.1
					c-0.1,1.3-0.9,2.5-1.9,3.3c-1.1,0.8-2.4,1.2-3.8,1.1c-1.3-0.1-2.7-0.7-3.6-1.7c-0.9-1-1.5-2.5-1.3-3.9c0.1-1.4,0.9-2.7,2-3.6
					s2.5-1.3,3.9-1.2c1.4,0.1,2.7,0.7,3.6,1.7c0.9,1,1.4,2.3,1.3,3.6C35,65.6,34.5,65.5,34.5,65.2z"/>
				<path class="st1" d="M32.8,63.6c-0.5,0.7-1.1,1.4-1.8,2c-0.3,0.3-0.6,0.6-1,0.9c-0.5,0.4-0.9,0.8-1.4,1.2
					c-0.2-0.3-0.4-0.5-0.7-0.8c-0.2-0.2-0.2-0.3-0.3-0.5c-0.2-0.3-0.4-0.6-0.6-0.9c-0.1-0.1,0.3-0.4,0.3-0.3
					c0.3,0.2,0.6,0.5,0.9,0.7c0.1,0.1,0.3,0.2,0.4,0.3h0.1v-0.1l0,0c0,0,0,0,0-0.1c0.2-0.2,0.3-0.3,0.5-0.5c0.3-0.3,0.7-0.6,1-0.9
					c0.7-0.6,1.4-1.1,2.2-1.5C32.6,63.2,32.8,63.5,32.8,63.6z"/>
			</g>
			<g>
				<g>
					<path class="st1" d="M94.3,65.3c-16.8,0.5-33.7,0.5-50.5,0c-0.7,0-0.7-0.4,0-0.5c16.8-0.5,33.7-0.5,50.5,0
						C95,64.8,95,65.3,94.3,65.3z"/>
				</g>
			</g>
		</g>
	</g>
	<g>
		<g>
			<g>
				<path class="st2" d="M133.3,52.5l-90.9-6.7c-1.8-0.1-3.1-1.7-3-3.5l0.9-12.1c0.1-1.8,1.7-3.1,3.5-3l90.9,6.7
					c1.8,0.1,3.1,1.7,3,3.5l-0.9,12.1C136.7,51.3,135.1,52.6,133.3,52.5z"/>
			</g>
			<g>
				<g>
					<path class="st1" d="M54.2,37.5c0.1-1.2-0.4-2.3-1.2-3.1c-0.8-0.8-1.9-1.3-3-1.4c-1.1-0.1-2.2,0.2-3.1,0.8
						c-0.9,0.6-1.5,1.6-1.7,2.6c-0.2,1.1,0.1,2.2,0.8,3c0.6,0.9,1.6,1.5,2.7,1.7c1.1,0.2,2.3,0.1,3.3-0.5c1-0.5,1.8-1.5,2.1-2.6
						c0.1-0.3,0.5-0.3,0.4,0.1c-0.2,1.3-1.1,2.5-2.2,3.2c-1.1,0.7-2.5,1-3.9,0.8c-1.3-0.2-2.6-0.9-3.5-2s-1.3-2.6-1-3.9
						c0.2-1.4,1.1-2.7,2.2-3.4c1.2-0.8,2.6-1.1,3.9-0.9c1.3,0.2,2.6,0.9,3.5,1.9s1.3,2.4,1.1,3.7C54.6,38,54.2,37.8,54.2,37.5z"/>
					<path class="st1" d="M52.5,35.8c-0.6,0.7-1.2,1.3-1.9,1.9c-0.3,0.3-0.7,0.6-1,0.8c-0.5,0.4-1,0.7-1.5,1.1
						c-0.2-0.3-0.4-0.6-0.6-0.9c-0.1-0.2-0.2-0.3-0.3-0.5c-0.2-0.3-0.4-0.7-0.5-1c0-0.1,0.3-0.4,0.4-0.3c0.3,0.2,0.6,0.5,0.8,0.8
						c0.1,0.1,0.3,0.2,0.4,0.4h0.1V38l0,0c0,0,0,0,0.1-0.1c0.2-0.1,0.3-0.3,0.5-0.4c0.3-0.3,0.7-0.5,1.1-0.8c0.7-0.5,1.5-1,2.3-1.3
						C52.3,35.4,52.6,35.7,52.5,35.8z"/>
				</g>
				<g>
					<g>
						<path class="st1" d="M113.8,42c-16.8-0.7-33.6-2-50.4-3.7c-0.6-0.1-0.6-0.5,0-0.5c16.8,0.8,33.6,1.9,50.4,3.7
							C114.5,41.6,114.5,42,113.8,42z"/>
					</g>
				</g>
			</g>
		</g>
		<g>
			<g>
				<path class="st3" d="M95.7,19.4L4.8,27c-1.8,0.2-3.4-1.2-3.5-3l-1-12.1c-0.2-1.8,1.2-3.4,3-3.5l90.8-7.6c1.8-0.2,3.4,1.2,3.5,3
					l1,12.1C98.8,17.6,97.5,19.2,95.7,19.4z"/>
			</g>
			<g>
				<g>
					<path class="st1" d="M15.2,16.9c-0.1-1.2-0.8-2.2-1.7-2.9c-0.9-0.7-2-1-3.2-0.9c-1.1,0.1-2.2,0.5-3,1.3S6,16.2,6,17.3
						c0,1.1,0.4,2.1,1.2,2.9c0.8,0.8,1.9,1.2,3,1.3s2.3-0.3,3.2-1c0.9-0.7,1.6-1.7,1.7-2.9c0-0.4,0.5-0.4,0.5,0
						c0,1.3-0.7,2.6-1.7,3.5s-2.3,1.4-3.7,1.4c-1.4,0-2.7-0.5-3.7-1.4s-1.7-2.3-1.6-3.7c0-1.4,0.6-2.8,1.7-3.7
						c1-0.9,2.4-1.5,3.7-1.5c1.4,0,2.7,0.5,3.7,1.4s1.6,2.2,1.6,3.5C15.6,17.3,15.2,17.3,15.2,16.9z"/>
					<path class="st1" d="M13.3,15.5c-0.5,0.8-1,1.5-1.6,2.2c-0.3,0.3-0.6,0.7-0.9,1c-0.4,0.4-0.9,0.9-1.3,1.3
						c-0.2-0.2-0.5-0.5-0.7-0.8c-0.2-0.2-0.3-0.3-0.4-0.5c-0.2-0.3-0.5-0.6-0.7-0.9c-0.1-0.1,0.2-0.4,0.3-0.3
						c0.3,0.2,0.6,0.4,0.9,0.6c0.1,0.1,0.3,0.2,0.4,0.3h0.1v-0.1l0,0c0,0,0,0,0-0.1c0.1-0.2,0.3-0.3,0.4-0.5c0.3-0.3,0.6-0.6,0.9-1
						c0.6-0.6,1.3-1.2,2.1-1.7C13,15.1,13.3,15.4,13.3,15.5z"/>
				</g>
				<g>
					<g>
						<path class="st1" d="M74.7,12c-16.7,1.9-33.5,3.3-50.3,4.2c-0.6,0-0.7-0.4,0-0.5c16.7-1.9,33.5-3.4,50.3-4.2
							C75.4,11.5,75.4,11.9,74.7,12z"/>
					</g>
				</g>
			</g>
		</g>
	</g>
	<g>
		<g>
			<path class="st4" d="M114.8,99.3H23.1c-1.7,0-3-1.3-3-3V83.7c0-1.7,1.3-3,3-3h91.7c1.7,0,3,1.3,3,3v12.6
				C117.8,97.9,116.5,99.3,114.8,99.3z"/>
		</g>
		<g>
			<g>
				<path class="st1" d="M34.5,90c0-1.2-0.6-2.3-1.4-3c-0.8-0.8-2-1.2-3.1-1.2s-2.2,0.3-3.1,1c-0.8,0.7-1.4,1.7-1.5,2.8
					c-0.1,1.1,0.3,2.1,1,3c0.7,0.8,1.7,1.4,2.9,1.5c1.1,0.1,2.3-0.1,3.2-0.7c1-0.6,1.7-1.6,1.9-2.8c0.1-0.3,0.5-0.3,0.5,0.1
					C34.8,92,34,93.2,33,94c-1.1,0.8-2.4,1.2-3.8,1.1c-1.3-0.1-2.7-0.7-3.6-1.7c-0.9-1-1.5-2.5-1.3-3.9c0.1-1.4,0.9-2.7,2-3.6
					s2.5-1.3,3.9-1.2c1.4,0.1,2.7,0.7,3.6,1.7c0.9,1,1.4,2.3,1.3,3.6C35,90.5,34.5,90.4,34.5,90z"/>
				<path class="st1" d="M32.8,88.5c-0.5,0.7-1.1,1.4-1.8,2c-0.3,0.3-0.6,0.6-1,0.9c-0.5,0.4-0.9,0.8-1.4,1.2
					c-0.2-0.3-0.4-0.5-0.7-0.8c-0.2-0.2-0.2-0.3-0.3-0.5c-0.2-0.3-0.4-0.6-0.6-0.9c-0.1-0.1,0.3-0.4,0.3-0.3
					c0.3,0.2,0.6,0.5,0.9,0.7c0.1,0.1,0.3,0.2,0.4,0.3h0.1V91l0,0c0,0,0,0,0-0.1c0.2-0.2,0.3-0.3,0.5-0.5c0.3-0.3,0.7-0.6,1-0.9
					c0.7-0.6,1.4-1.1,2.2-1.5C32.6,88.1,32.8,88.4,32.8,88.5z"/>
			</g>
			<g>
				<g>
					<path class="st1" d="M94.3,90.2c-16.8,0.5-33.7,0.5-50.5,0c-0.7,0-0.7-0.4,0-0.5c16.8-0.5,33.7-0.5,50.5,0
						C95,89.7,95,90.1,94.3,90.2z"/>
				</g>
			</g>
		</g>
	</g>
</g>
</svg>
