<svg width="147" height="147" viewBox="0 0 147 147" fill="none" xmlns="http://www.w3.org/2000/svg">
<path d="M78.9709 39.0273C84.4429 38.3303 84.8374 32.2481 85.5271 29.8643C86.6443 26.008 88.0518 22.0561 92.0036 20.3154C93.6453 19.593 95.4565 19.3451 97.2319 19.6C98.7019 19.8156 98.7325 19.8903 100.03 19.4628C103.503 18.3187 107.494 18.5661 110.488 20.8103C114.83 24.0627 113.652 31.5683 112.585 36.0971C112.005 38.5544 111.224 41.1331 109.854 43.2793C108.688 45.1045 107.195 45.6643 105.077 45.8603C100.163 46.305 81.8864 46.8416 78.9709 39.0273Z" fill="#2CCAFA"/>
<path d="M104.578 37.229C109.443 36.1939 108.884 32.7688 108.285 32.2518C106.974 31.1199 104.685 33.9754 104.685 33.9754C99.8657 32.3682 101.028 25.8157 101.028 25.8157C96.8093 29.2457 91.8076 27.1068 91.581 27.0064C91.5516 27.0823 91.521 27.1595 91.4916 27.2379L90.8987 28.9529C90.4087 30.6348 89.376 35.2237 90.1036 36.6447C90.9097 38.2188 94.8591 38.7517 95.3393 39.5418C97.401 42.9363 92.0428 47.3585 88.8884 48.6362C90.6353 56.241 102.791 51.1291 106.341 49.4716C103.596 48.9081 101.522 43.7791 101.42 43.6112C101.42 43.61 99.715 38.2641 104.578 37.229Z" fill="#002955"/>
<path d="M96.4896 135.214C109.689 135.214 120.389 134.501 120.389 133.622C120.389 132.742 109.689 132.029 96.4896 132.029C83.2901 132.029 72.5898 132.742 72.5898 133.622C72.5898 134.501 83.2901 135.214 96.4896 135.214Z" fill="#E7EBEC"/>
<path d="M47.6157 135.214C56.9021 135.214 64.4301 134.501 64.4301 133.622C64.4301 132.742 56.9021 132.029 47.6157 132.029C38.3294 132.029 30.8014 132.742 30.8014 133.622C30.8014 134.501 38.3294 135.214 47.6157 135.214Z" fill="#E7EBEC"/>
<path d="M51.1719 21.767C51.1719 21.767 55.3982 29.9672 54.5836 34.3245C53.7689 38.6818 45.8542 37.5475 45.8542 37.5475L48.4267 42.9375C48.4267 42.9375 39.8946 43.4275 40.0967 43.2217C40.3797 42.9387 40.1298 35.0816 40.1433 35.6561C40.1433 35.6561 37.8341 28.4568 37.975 27.8467C38.1159 27.2367 42.3924 20.5543 42.3924 20.5543L51.1719 21.767Z" fill="#0070E1"/>
<path d="M58.9678 130.787C60.2467 98.8502 53.421 76.3175 53.421 76.3175L34.1946 76.2869C34.1946 76.2869 32.3032 99.5349 36.1853 131.336H39.1498C39.1498 131.336 42.9877 84.9966 45.1621 85.3482C47.3364 85.6998 56.0376 130.858 56.0376 130.858L58.9678 130.787Z" fill="#002A54"/>
<path d="M36.7353 130.83C36.7353 130.83 33.5858 130.585 31.4592 133.105H39.0383L39.1498 130.825L36.7353 130.83Z" fill="#2CCAFA"/>
<path d="M58.4546 130.801C58.4546 130.801 61.604 130.471 63.787 132.932L56.192 133.137L56.0327 130.866L58.4546 130.801Z" fill="#2CCAFA"/>
<path d="M22.3073 34.7263C22.3073 34.7263 24.0566 29.1746 22.812 28.9517C21.5674 28.7287 21.3738 31.2792 21.3738 31.2792C21.3738 31.2792 17.7062 27.1301 15.5967 28.4506C13.4873 29.7712 19.7446 35.3694 19.7446 35.3694L19.6613 37.3797L22.5412 36.7427L22.3073 34.7263Z" fill="#0070E1"/>
<path d="M123.392 48.7722C123.392 48.7722 122.63 43.0024 123.895 42.9987C125.161 42.9951 124.908 45.5369 124.908 45.5369C124.908 45.5369 129.24 42.0861 131.088 43.7521C132.937 45.4181 125.807 49.8489 125.807 49.8489L125.542 51.842L122.815 50.715L123.392 48.7722Z" fill="#002955"/>
<path d="M117.316 125.449C117.316 125.449 95.2829 108.972 95.0931 87.4013L96.677 85.2808C91.396 99.6648 82.2575 123.725 80.8243 127.199L77.2718 126.198C81.9464 96.1478 82.6324 94.6411 82.6324 94.6411L99.1748 71.7605C99.1748 71.7605 103.075 71.8708 104.187 84.2739C106.097 98.735 111.855 114.508 118.786 121.605L117.316 125.449Z" fill="#002955"/>
<path d="M80.8242 127.199C79.6825 130.968 78.5151 132.783 77.2816 132.906C75.2971 133.105 67.6886 131.77 67.5539 130.514C67.4314 129.383 76.5061 129.022 76.5061 129.022L77.2669 126.204L80.8242 127.199Z" fill="#FF7381"/>
<path d="M118.515 121.194C121.074 124.188 121.973 126.149 121.411 127.255C120.508 129.033 115.286 134.728 114.152 134.158C113.135 133.651 117.722 125.814 117.722 125.814L115.649 124.099L118.515 121.194Z" fill="#FF7381"/>
<path d="M90.4209 47.6133C97.303 51.7403 105.863 49.2646 105.863 49.2646C110.548 49.9763 112.388 61.0626 115.187 61.5759C117.986 62.0891 122.713 50.0118 122.713 50.0118L125.852 51.7146C125.852 51.7146 121.181 69.776 115.939 68.9418C110.697 68.1076 104.914 58.8539 104.914 58.8539L99.8816 69.8532L90.3425 70.1178L90.4209 47.6133Z" fill="#FFC7DB"/>
<path d="M34.1775 84.0815C34.8806 83.0146 35.6328 82.0113 36.2735 80.9664C36.9142 79.9215 37.4532 78.8238 37.7043 77.6013C37.7239 77.5082 37.9848 77.5168 37.9873 77.6221C38.0064 78.2804 37.9183 78.9374 37.7263 79.5674C37.5349 80.1974 37.2649 80.8008 36.9227 81.3633C36.2441 82.4866 35.3486 83.4237 34.4017 84.2739C34.3171 84.3449 34.1175 84.1661 34.1775 84.0815Z" fill="#202020"/>
<path d="M53.4774 83.4727C53.1797 83.3921 52.8982 83.2602 52.6456 83.0832C52.3943 82.9073 52.1652 82.7017 51.9633 82.4707C51.7654 82.2434 51.5867 82 51.4292 81.743C51.2723 81.4902 51.1311 81.228 51.0066 80.9578C50.508 79.8798 50.2715 78.7271 50.1368 77.5817C50.127 77.4923 50.3818 77.4261 50.4124 77.5107C50.8326 78.5813 51.2246 79.6409 51.6975 80.6369C51.82 80.8819 51.9425 81.1269 52.065 81.3719C52.1875 81.6169 52.3296 81.8472 52.479 82.0701C52.7582 82.5247 53.1348 82.9117 53.5815 83.2032C53.666 83.2473 53.5729 83.4985 53.4774 83.4727Z" fill="#202020"/>
<path d="M94.4475 54.6485C94.4377 54.4795 94.4622 54.3103 94.5197 54.1511C94.5772 53.9919 94.6664 53.8461 94.7819 53.7224C94.9049 53.5903 95.0532 53.4843 95.218 53.4107C95.3827 53.337 95.5606 53.2972 95.7411 53.2936C95.9292 53.2894 96.1162 53.323 96.2911 53.3925C96.4659 53.4619 96.6251 53.5658 96.759 53.6979C96.8959 53.832 97.0047 53.9921 97.0789 54.1688C97.1532 54.3455 97.1914 54.5352 97.1914 54.7269C97.1914 54.9185 97.1532 55.1082 97.0789 55.2849C97.0047 55.4616 96.8959 55.6217 96.759 55.7559C96.625 55.8872 96.4659 55.9902 96.2912 56.0588C96.1166 56.1274 95.9299 56.1602 95.7423 56.1552C95.5626 56.1508 95.3856 56.1105 95.2217 56.0367C95.0578 55.9628 94.9104 55.8569 94.788 55.7252C94.6733 55.6018 94.5846 55.4565 94.5273 55.298C94.4701 55.1395 94.4454 54.9711 94.4548 54.8028C94.4622 54.6987 94.7231 54.7109 94.739 54.7857C94.7852 55.021 94.9198 55.2297 95.1151 55.3688C95.2925 55.4957 95.5111 55.5512 95.7276 55.5243C95.9273 55.5 96.1107 55.4022 96.2421 55.2499C96.3681 55.1058 96.4369 54.9206 96.4356 54.7291C96.4342 54.5377 96.3628 54.3534 96.2347 54.2111C96.1037 54.0642 95.9232 53.9705 95.7276 53.9478C95.5171 53.9228 95.3049 53.976 95.131 54.0972C94.9367 54.2324 94.8002 54.4357 94.7488 54.6668C94.7231 54.7452 94.4548 54.7575 94.4475 54.6485Z" fill="#202020"/>
<path d="M93.9146 59.3929C93.9048 59.224 93.9292 59.0549 93.9865 58.8958C94.0438 58.7366 94.1327 58.5907 94.2478 58.4668C94.371 58.3346 94.5195 58.2285 94.6845 58.1549C94.8494 58.0812 95.0276 58.0415 95.2082 58.038C95.3961 58.0338 95.583 58.0674 95.7577 58.1368C95.9323 58.2063 96.0912 58.3102 96.225 58.4423C96.362 58.5763 96.4709 58.7364 96.5452 58.9131C96.6196 59.0898 96.6579 59.2796 96.6579 59.4713C96.6579 59.663 96.6196 59.8528 96.5452 60.0295C96.4709 60.2062 96.362 60.3663 96.225 60.5003C96.0909 60.6316 95.9318 60.7346 95.7571 60.8032C95.5825 60.8718 95.3958 60.9046 95.2082 60.8997C95.0284 60.8957 94.8513 60.8555 94.6874 60.7817C94.5234 60.7078 94.376 60.6017 94.2539 60.4697C94.139 60.3464 94.0502 60.2011 93.993 60.0426C93.9357 59.884 93.9111 59.7155 93.9208 59.5473C93.9281 59.4431 94.189 59.4554 94.2037 59.5301C94.2509 59.7653 94.3858 59.9738 94.581 60.1132C94.7584 60.2401 94.9771 60.2957 95.1935 60.2688C95.3932 60.2445 95.5766 60.1467 95.708 59.9944C95.834 59.8503 95.9028 59.665 95.9015 59.4736C95.9001 59.2822 95.8287 59.0979 95.7007 58.9556C95.5694 58.8089 95.389 58.7152 95.1935 58.6922C94.9827 58.6673 94.77 58.7204 94.5957 58.8416C94.4021 58.9773 94.2662 59.1805 94.2147 59.4113C94.1902 59.4897 93.922 59.4995 93.9146 59.3929Z" fill="#202020"/>
<path d="M72.6094 131.057C72.4273 130.794 72.3168 130.488 72.2889 130.17C72.261 129.852 72.3166 129.532 72.4502 129.241C72.5406 129.21 72.6373 129.201 72.7319 129.215C73.0688 129.796 73.1754 130.396 72.9034 131.03C72.8093 131.063 72.7081 131.073 72.6094 131.057Z" fill="#202020"/>
<path d="M74.2203 130.965C74.0196 130.71 73.9054 130.398 73.8944 130.073C73.8834 129.749 73.9761 129.43 74.1591 129.162C74.2538 129.145 74.3512 129.153 74.442 129.185C74.6785 129.789 74.7495 130.3 74.5119 130.919C74.4198 130.958 74.3197 130.974 74.2203 130.965Z" fill="#202020"/>
<path d="M118.407 128.013C118.149 127.949 117.903 127.843 117.68 127.7C117.464 127.544 117.274 127.357 117.114 127.144C117.125 127.049 117.157 126.957 117.209 126.877C117.52 126.836 117.835 126.903 118.102 127.067C118.235 127.15 118.35 127.259 118.44 127.387C118.53 127.516 118.594 127.661 118.627 127.814C118.57 127.896 118.495 127.964 118.407 128.013Z" fill="#202020"/>
<path d="M117.326 129.824C117.069 129.73 116.829 129.593 116.616 129.42C116.413 129.237 116.238 129.025 116.097 128.79C116.118 128.697 116.16 128.611 116.219 128.537C116.539 128.536 116.85 128.642 117.103 128.837C117.356 129.037 117.519 129.329 117.558 129.649C117.496 129.725 117.416 129.785 117.326 129.824Z" fill="#202020"/>
<path d="M34.9382 132.318C35.0775 132.001 35.2002 131.676 35.3057 131.346C35.3548 131.191 35.3929 131.032 35.4197 130.872C35.4197 130.834 35.4295 130.798 35.4331 130.761C35.4368 130.725 35.4331 130.727 35.4331 130.709V130.684V130.674C35.4331 130.667 35.4314 130.66 35.4282 130.653C35.4251 130.647 35.4205 130.641 35.4148 130.636C35.4119 130.633 35.4085 130.631 35.4047 130.63C35.4009 130.628 35.3968 130.627 35.3927 130.627C35.3886 130.627 35.3845 130.628 35.3807 130.63C35.3769 130.631 35.3735 130.633 35.3707 130.636C35.3621 130.649 35.3707 130.656 35.3707 130.665L35.3547 130.741C35.3486 130.776 35.3425 130.813 35.3376 130.851C35.3278 130.927 35.3204 131.006 35.3155 131.086C35.3106 131.166 35.307 131.248 35.3057 131.331V131.565H35.2849L34.6271 131.82L34.5144 131.667C34.4752 131.62 34.4372 131.57 34.398 131.525C34.3171 131.431 34.2363 131.358 34.2534 131.367C34.2488 131.358 34.2419 131.351 34.2334 131.346C34.225 131.341 34.2154 131.339 34.2057 131.34C34.1948 131.343 34.1851 131.349 34.1777 131.358C34.1704 131.367 34.1656 131.377 34.164 131.389C34.1631 131.397 34.1631 131.405 34.164 131.413C34.164 131.435 34.164 131.455 34.1726 131.479C34.1837 131.531 34.1985 131.582 34.2167 131.632C34.2783 131.796 34.3825 131.94 34.5184 132.049C34.6543 132.159 34.817 132.23 34.9897 132.256C35.0742 132.273 35.0901 132.534 34.9762 132.539C34.6494 132.56 34.3264 132.459 34.0697 132.256C33.9375 132.151 33.8255 132.022 33.7389 131.877C33.6952 131.803 33.6579 131.725 33.6275 131.645C33.6115 131.603 33.5993 131.555 33.5858 131.51C33.5723 131.465 33.5638 131.387 33.5589 131.329C33.5533 131.268 33.5533 131.208 33.5589 131.147C33.5589 131.118 33.5589 131.088 33.5711 131.059L33.5944 130.976C33.632 130.869 33.6976 130.773 33.7843 130.7C33.8799 130.633 33.9926 130.594 34.1093 130.588C34.2261 130.581 34.3422 130.608 34.4445 130.665C34.6278 130.758 34.7935 130.882 34.9345 131.032C34.9909 131.088 35.0411 131.146 35.0926 131.204L35.2359 131.38L34.5609 131.635C34.5609 131.569 34.5536 131.528 34.5523 131.478V131.333C34.5523 131.238 34.5523 131.142 34.5609 131.046C34.5695 130.949 34.5756 130.851 34.5903 130.75C34.5977 130.7 34.6075 130.65 34.6173 130.598L34.6356 130.521C34.6418 130.494 34.654 130.45 34.665 130.416C34.7091 130.254 34.791 130.105 34.9039 129.981C35.0079 129.871 35.1477 129.801 35.2984 129.784C35.4502 129.772 35.6019 129.808 35.7324 129.886C35.863 129.965 35.966 130.082 36.0273 130.221C36.0862 130.371 36.1081 130.533 36.091 130.693V130.75L36.0836 130.791C36.0836 130.818 36.075 130.845 36.0689 130.87C36.0567 130.922 36.0444 130.973 36.0285 131.021C35.9704 131.206 35.8954 131.386 35.8043 131.558C35.6312 131.882 35.4291 132.189 35.2004 132.476C35.1257 132.552 34.8978 132.411 34.9382 132.318Z" fill="#202020"/>
<path d="M59.8376 131.443C59.9601 131.125 60.0973 130.814 60.2161 130.505C60.2761 130.351 60.3325 130.197 60.3839 130.044C60.4337 129.931 60.4584 129.809 60.4562 129.686C60.4568 129.679 60.4568 129.673 60.4562 129.666C60.5219 129.659 60.5862 129.643 60.6473 129.617C60.6591 129.612 60.6702 129.605 60.6804 129.598C60.6804 129.598 60.689 129.589 60.6804 129.598C60.6748 129.612 60.6719 129.627 60.6718 129.642C60.6713 129.683 60.6771 129.725 60.689 129.764C60.6954 129.788 60.7032 129.812 60.7122 129.835C60.7122 129.852 60.7122 129.844 60.7122 129.846L60.6939 129.86L60.6571 129.886C60.5568 129.965 60.4685 130.058 60.395 130.162C60.2287 130.42 60.0888 130.694 59.9772 130.979L59.5363 132.008L59.2778 130.943C59.2581 130.853 59.2331 130.765 59.2031 130.678L59.1835 130.633C59.1835 130.623 59.1835 130.625 59.1835 130.621C59.1824 130.614 59.1799 130.608 59.1761 130.602C59.171 130.593 59.1637 130.585 59.1547 130.579C59.1458 130.573 59.1355 130.569 59.1248 130.568C59.1142 130.567 59.1034 130.569 59.0935 130.573C59.0837 130.577 59.075 130.584 59.0683 130.592C59.0505 130.618 59.0415 130.648 59.0426 130.679C59.0604 130.766 59.0927 130.849 59.1381 130.924C59.2493 131.103 59.3813 131.267 59.5314 131.414C59.5914 131.478 59.4321 131.684 59.3537 131.636C59.1432 131.516 58.9507 131.366 58.7817 131.193C58.6856 131.091 58.6081 130.974 58.5526 130.846C58.4787 130.67 58.4679 130.473 58.522 130.29C58.5497 130.202 58.5973 130.122 58.661 130.056C58.7248 129.989 58.8029 129.939 58.8895 129.908C58.9814 129.878 59.0784 129.867 59.1746 129.876C59.2708 129.885 59.3643 129.913 59.4493 129.959C59.5424 130.007 59.6256 130.072 59.6943 130.151C59.729 130.189 59.7601 130.23 59.7874 130.274C59.8088 130.307 59.8284 130.341 59.8462 130.377C59.9045 130.495 59.9524 130.618 59.9895 130.744L59.29 130.708C59.4033 130.352 59.5684 130.016 59.78 129.709C59.9066 129.538 60.0616 129.39 60.2382 129.272L60.3092 129.23L60.3447 129.209L60.3962 129.182C60.4897 129.138 60.5928 129.117 60.6963 129.121C60.7836 129.125 60.8682 129.153 60.9413 129.201C61.0132 129.25 61.07 129.318 61.1055 129.398C61.1288 129.449 61.1437 129.503 61.1496 129.558C61.1539 129.594 61.156 129.629 61.1557 129.665C61.1436 129.884 61.0794 130.098 60.9683 130.287C60.8862 130.447 60.798 130.6 60.7037 130.748C60.5148 131.039 60.3104 131.319 60.0912 131.588C60.0324 131.665 59.8045 131.526 59.8376 131.443Z" fill="#202020"/>
<path d="M90.421 47.6133C84.8607 50.1858 80.0084 56.1442 80.6038 62.4248C81.1121 67.7352 88.2821 73.5025 88.2821 73.5025L89.7227 70.93C89.7227 70.93 85.2992 64.6175 85.5124 62.4297C85.8603 58.8772 86.9322 58.0478 90.421 55.8441" fill="#FFC7DB"/>
<path d="M99.8816 69.8532C99.8816 69.8532 103.837 70.9557 104.936 78.6842C106.035 86.4127 109.358 100.459 116.468 105.319C116.468 105.319 99.8314 117.332 80.6038 105.427C80.6038 105.427 82.5638 79.5944 90.3425 70.1178L99.8816 69.8532Z" fill="#0070E1"/>
<path d="M78.0068 121.471C77.9749 121.667 82.5993 122.673 82.5993 122.673L80.8243 127.199L77.2718 126.198L78.0582 121.756" fill="#FFE200"/>
<path d="M115.649 124.099L112.433 121.194L115.932 118.112L118.515 121.194L115.649 124.099Z" fill="#FFE200"/>
<path d="M59.29 74.1211C59.7913 74.1619 60.2902 74.2289 60.7845 74.322C61.19 73.5551 61.582 72.7687 61.9495 71.9761C61.782 71.878 61.5951 71.8178 61.4019 71.7997C61.165 71.7759 60.927 71.7661 60.689 71.7703C60.1855 71.7703 59.6857 71.7519 59.1859 71.7299C58.4692 71.6956 57.7526 71.6417 57.0311 71.5718C56.7028 72.4293 56.3622 73.2783 56.0303 74.0794C57.1168 74.0309 58.2051 74.0448 59.29 74.1211Z" fill="#FF7381"/>
<path d="M54.33 44.9648C48.7358 44.9942 43.1416 44.8717 37.5475 44.5973C36.3337 45.7862 35.0225 46.8713 33.6275 47.8412C42.1963 48.4132 50.7615 48.9375 59.3255 49.4937C57.8688 47.769 56.1889 46.246 54.33 44.9648Z" fill="#FF7381"/>
<path d="M61.8993 53.3242C61.2431 52.0782 60.4664 50.8994 59.5804 49.8048H59.535C50.6393 49.7829 41.751 49.2853 32.9084 48.314C31.3159 49.294 29.6499 49.9567 28.1468 49.8698C26.5948 49.7803 25.4053 47.7958 24.5294 45.3948C22.8731 46.1582 21.1727 46.8217 19.4371 47.3818C19.529 49.5059 19.7421 51.6056 20.1623 53.2691C34.0697 52.7546 48.0053 52.7399 61.8993 53.3242Z" fill="#FF7381"/>
<path d="M23.3191 41.1159C22.0124 41.2792 20.7139 41.4805 19.4236 41.7198C19.3758 43.2205 19.3562 44.9685 19.4126 46.7289C21.0068 45.9836 22.6632 45.3794 24.3628 44.9232C23.946 43.674 23.5975 42.403 23.3191 41.1159Z" fill="#FF7381"/>
<path d="M34.1947 76.2918L53.4272 76.3224L52.9972 72.6474C46.9032 73.2191 40.7917 73.5596 34.6626 73.6691L34.1947 76.2918Z" fill="#FF7381"/>
<path d="M59.2165 74.8794C58.1018 74.7789 56.9699 74.6895 55.8392 74.5278C54.7563 77.115 53.8179 79.1056 53.8179 79.1056L54.5297 84.0963C56.7044 81.2056 58.6722 78.165 60.4182 74.9969C60.025 74.9541 59.6195 74.9161 59.2165 74.8794Z" fill="#FF7381"/>
<path d="M23.1868 40.5022C22.7446 38.3805 22.5412 36.7402 22.5412 36.7402L19.6613 37.3772C19.6613 37.3772 19.5388 38.8374 19.4518 40.953C19.6858 40.904 19.921 40.8574 20.1574 40.8158C21.1585 40.6398 22.1709 40.535 23.1868 40.5022Z" fill="#FF7381"/>
<path d="M47.8473 41.6181C44.2384 43.2768 40.2278 41.7492 40.2278 41.7492C40.2278 41.7492 39.4205 42.7292 38.1551 44.0008C43.3001 44.0363 48.4353 44.176 53.5656 44.4528C50.4382 42.4267 47.8473 41.6181 47.8473 41.6181Z" fill="#FF7381"/>
<path d="M36.1289 65.3145L35.4748 69.0251C37.3294 68.8352 39.1951 68.7335 41.0595 68.7249C44.6357 68.7067 48.2051 69.0374 51.717 69.7123C52.0123 69.7674 51.9547 70.0296 51.6742 70.0038C46.2549 69.4641 40.8019 69.347 35.3645 69.6535L34.7422 73.1864C40.8011 72.6805 46.8697 72.3497 52.9482 72.275L52.1397 65.3635C46.8011 65.2704 41.4642 65.2541 36.1289 65.3145Z" fill="#FF7381"/>
<path d="M47.8314 58.4325C46.5169 58.4239 45.2062 58.3676 43.8991 58.2879C42.592 58.2083 41.2886 58.103 39.9877 57.9988C39.3343 57.9458 38.6843 57.8976 38.0375 57.8543C37.8464 57.8408 37.6491 57.8286 37.4519 57.8077L36.9839 60.4611C39.8701 60.7502 42.7611 60.9572 45.6533 61.0993C47.6574 61.1998 49.6615 61.2708 51.6693 61.3309L51.3153 58.3026C50.1564 58.408 48.9914 58.4325 47.8314 58.4325Z" fill="#FF7381"/>
<path d="M45.6129 61.8625C42.6942 61.7125 39.7855 61.4066 36.8994 60.9462L36.2196 64.8025C41.5025 64.3963 46.81 64.432 52.087 64.9091L51.744 61.9825C49.7007 61.9997 47.6525 61.9666 45.6129 61.8625Z" fill="#FF7381"/>
<path d="M64.3554 62.9381C64.3125 61.4287 64.123 59.9272 63.7894 58.4545C61.1761 58.417 58.5628 58.3553 55.9494 58.2696C57.515 59.4615 58.8894 61.1875 59.0524 63.6167C60.1365 63.3901 61.2316 63.2125 62.3329 63.0924C63.0054 63.0177 63.6804 62.965 64.3554 62.9381Z" fill="#FF7381"/>
<path d="M63.6277 57.7894C63.2622 56.387 62.7527 55.0262 62.1075 53.7285C48.1695 53.6411 34.2245 53.6236 20.2725 53.6758C20.4497 54.3601 20.7289 55.0138 21.1006 55.615C23.7699 59.6244 37.9003 55.2622 37.9003 55.2622L37.5267 57.379C37.6982 57.379 37.8709 57.379 38.0473 57.3704C38.7055 57.3574 39.3629 57.3574 40.0195 57.3704C41.3327 57.3937 42.641 57.455 43.9469 57.5309C45.2527 57.6069 46.5549 57.6963 47.8546 57.7759C48.9951 57.8482 50.1331 57.9168 51.2736 57.9474L51.0384 55.9384C52.5314 56.3265 53.9542 56.9465 55.2549 57.7759C58.0419 57.5623 60.8414 57.5668 63.6277 57.7894Z" fill="#FF7381"/>
<path d="M59.2153 70.9692C59.7266 70.9878 60.2364 71.0377 60.7416 71.1186C61.0098 71.1542 61.2735 71.2182 61.5281 71.3097C61.7377 71.3847 61.9292 71.5028 62.0904 71.6564C62.7752 70.1738 63.3417 68.6394 63.7845 67.0675C62.9393 67.0283 62.0916 67.0406 61.2365 67.0504C60.357 67.0602 59.4603 67.0675 58.5648 67.0112C58.2267 68.2472 57.749 69.6462 57.2259 71.0427C57.8864 70.9704 58.5513 70.9459 59.2153 70.9692Z" fill="#FF7381"/>
<path d="M63.5101 66.4011C63.6522 66.4207 63.7943 66.4428 63.9364 66.4673C64.1662 65.5377 64.3049 64.5879 64.3505 63.6314C63.7053 63.7082 63.0589 63.78 62.4113 63.847C61.2998 63.9605 60.1859 64.0593 59.0695 64.1434V64.1692C59.0634 64.7682 58.9335 65.5412 58.7179 66.4183C59.5497 66.3656 60.3827 66.3044 61.2267 66.2897C61.9896 66.2694 62.7529 66.3067 63.5101 66.4011Z" fill="#FF7381"/>
<path d="M54.33 44.9648C54.0727 44.786 53.8179 44.6153 53.5656 44.4528C48.4353 44.1759 43.2964 44.0363 38.1551 44.0008C37.9623 44.1951 37.7582 44.3956 37.5426 44.6022C43.1392 44.8693 48.735 44.9902 54.33 44.9648Z" fill="#202020"/>
<path d="M59.5803 49.8049C59.497 49.7007 59.4137 49.5991 59.3292 49.4986C50.7652 48.9424 42.2 48.4181 33.6312 47.846C33.3862 48.0077 33.151 48.1646 32.9084 48.314C41.751 49.2857 50.6392 49.7838 59.535 49.8061L59.5803 49.8049Z" fill="#202020"/>
<path d="M23.1868 40.5022C22.1708 40.535 21.1585 40.6398 20.1574 40.8158C19.9209 40.8574 19.6857 40.904 19.4518 40.953C19.442 41.198 19.4326 41.4536 19.4236 41.7198C20.7147 41.4822 22.0132 41.2809 23.3191 41.1159C23.2725 40.9077 23.2284 40.7031 23.1868 40.5022Z" fill="#202020"/>
<path d="M24.3628 44.9232C22.6632 45.3794 21.0068 45.9836 19.4126 46.7288C19.4199 46.9469 19.4273 47.1649 19.4371 47.3817C21.1726 46.8217 22.8731 46.1582 24.5294 45.3948C24.4718 45.2393 24.4167 45.08 24.3628 44.9232Z" fill="#202020"/>
<path d="M62.1075 53.7285C62.0401 53.5925 61.9703 53.4578 61.9004 53.3243C48.0065 52.7399 34.0709 52.7546 20.1635 53.2691C20.1978 53.4076 20.2345 53.5435 20.2725 53.6758C34.2138 53.6162 48.1588 53.6338 62.1075 53.7285Z" fill="#202020"/>
<path d="M36.984 60.4611L36.8994 60.9437C39.7855 61.405 42.6941 61.7116 45.6129 61.8625C47.6562 61.9691 49.7007 62.0021 51.7379 61.985L51.6631 61.3382C49.6554 61.2782 47.6513 61.2071 45.6472 61.1067C42.7611 60.9572 39.8701 60.7502 36.984 60.4611Z" fill="#202020"/>
<path d="M36.2196 64.8025L36.1289 65.3195C41.4683 65.2533 46.8052 65.2697 52.1396 65.3685L52.087 64.9091C46.81 64.432 41.5025 64.3963 36.2196 64.8025Z" fill="#202020"/>
<path d="M51.6742 70.0039C51.9547 70.0296 52.0123 69.7674 51.7171 69.7123C48.2051 69.0374 44.6357 68.7067 41.0596 68.725C39.1951 68.7335 37.3294 68.8352 35.4748 69.0251L35.3645 69.6535C40.8019 69.347 46.255 69.4641 51.6742 70.0039Z" fill="#202020"/>
<path d="M34.6565 73.6703C40.7815 73.5543 46.893 73.2138 52.9911 72.6486L52.9482 72.2811C46.8722 72.3559 40.8011 72.6866 34.7422 73.1925L34.6565 73.6703Z" fill="#202020"/>
<path d="M63.6277 57.7894C60.8413 57.5672 58.0419 57.5631 55.2549 57.7771C55.4888 57.929 55.7216 58.092 55.9507 58.2671C58.564 58.3488 61.1773 58.4105 63.7906 58.4521C63.7392 58.2279 63.6841 58.0074 63.6277 57.7894Z" fill="#202020"/>
<path d="M64.3505 63.6314C64.359 63.3974 64.3615 63.1659 64.3505 62.938C63.6755 62.9674 63.003 63.0177 62.3292 63.0899C61.2267 63.2124 60.1328 63.3876 59.0487 63.6142C59.0597 63.787 59.0658 63.9634 59.0646 64.1434C60.1818 64.0618 61.2957 63.963 62.4064 63.847C63.0565 63.7808 63.7045 63.709 64.3505 63.6314Z" fill="#202020"/>
<path d="M61.2365 67.0504C62.094 67.0406 62.9393 67.0284 63.7845 67.0676C63.8384 66.8667 63.8891 66.6666 63.9364 66.4673C63.7943 66.4428 63.6522 66.4207 63.5101 66.4011C62.7529 66.3067 61.9896 66.2695 61.2267 66.2897C60.3827 66.3044 59.5497 66.3656 58.7179 66.4183C58.6714 66.6106 58.6199 66.8091 58.5648 67.0112C59.4603 67.0676 60.357 67.0602 61.2365 67.0504Z" fill="#202020"/>
<path d="M60.6841 71.7703C60.9221 71.7661 61.1601 71.7759 61.397 71.7997C61.5902 71.8178 61.7771 71.878 61.9446 71.9761C61.9936 71.8695 62.0426 71.7629 62.0904 71.6564C61.9292 71.5028 61.7377 71.3847 61.5281 71.3097C61.2735 71.2182 61.0098 71.1541 60.7416 71.1186C60.2364 71.0377 59.7266 70.9877 59.2153 70.9692C58.5512 70.9459 57.8864 70.9704 57.2259 71.0426C57.1597 71.219 57.0936 71.3954 57.0262 71.5718C57.7477 71.6417 58.4643 71.6943 59.181 71.7299C59.6808 71.7519 60.1806 71.7666 60.6841 71.7703Z" fill="#202020"/>
<path d="M60.4182 74.997C60.5407 74.774 60.6632 74.549 60.7857 74.322C60.2914 74.2289 59.7926 74.1619 59.2912 74.1211C58.2063 74.0448 57.118 74.0309 56.0315 74.0794L55.8453 74.5278C56.976 74.6895 58.1079 74.7789 59.2226 74.8794C59.6195 74.9161 60.025 74.9541 60.4182 74.997Z" fill="#202020"/>
<path d="M43.9469 57.5284C42.641 57.4525 41.3327 57.3912 40.0195 57.368C39.3662 57.3557 38.7088 57.3557 38.0473 57.368C37.8709 57.368 37.6981 57.3765 37.5266 57.3765L37.4519 57.8053C37.6491 57.8261 37.8464 57.8384 38.0375 57.8519C38.6908 57.896 39.3409 57.9441 39.9877 57.9964C41.2886 58.1005 42.592 58.2059 43.8991 58.2855C45.2062 58.3651 46.5169 58.4215 47.8313 58.4301C48.9914 58.4301 50.1588 58.4056 51.3152 58.3002L51.2736 57.9474C50.1331 57.9168 48.9951 57.8482 47.8546 57.7759C46.55 57.6975 45.2527 57.6032 43.9469 57.5284Z" fill="#202020"/>
<path d="M38.7014 30.0407C38.9599 30.0542 38.9464 30.0664 38.7014 30.0787C38.6916 30.0787 38.4858 30.0787 38.4772 30.0787C38.2543 30.0664 38.2127 30.0542 38.4711 30.0407H38.7014Z" fill="#2082E5"/>
<path d="M52.6909 25.0757C52.6732 25.043 52.648 25.0149 52.6174 24.9937C52.5823 24.9809 52.5447 24.9764 52.5075 24.9805C52.4704 24.9845 52.4346 24.997 52.403 25.0169C49.6529 26.2138 46.1984 25.5461 44.0914 23.4122C43.5953 24.8822 42.4083 28.9921 39.7304 30.4878L40.1481 35.8031C40.1481 35.8031 35.7553 37.1506 33.0333 33.7561C30.7512 30.9153 30.9851 26.2236 35.0668 24.8785C32.8043 22.823 32.4943 19.611 35.2665 17.8421C37.7165 16.2827 40.73 16.437 41.9624 13.2459C42.1388 14.4121 42.3017 15.9568 41.3107 16.8303C43.3025 15.7278 44.8264 14.7612 47.0682 14.5297C48.6447 14.368 52.1299 15.7106 53.8363 14.4354C54.0115 15.8049 53.3745 16.9209 51.6693 17.6669C53.5778 18.1275 55.8269 20.0704 56.1822 21.5514C56.7873 24.0823 55.4888 25.9884 53.6464 27.7524L52.6909 25.0757Z" fill="#FFC7DB"/>
<path d="M40.2854 30.8136C40.2854 30.8136 36.75 28.0268 35.9219 29.5739C34.5952 32.0411 40.5095 33.7757 40.5095 33.7757L40.2854 30.8136Z" fill="#0070E1"/>
</svg>
